HIERARCHY
ROOT joint_Root
{
	OFFSET 0.0 0.0 0.0
	CHANNELS 6 Xposition Yposition Zposition Zrotation Xrotation Yrotation 
	JOINT Hips
	{
		OFFSET -0.726466 93.3139 -2.00062
		CHANNELS 6 Xposition Yposition Zposition Zrotation Xrotation Yrotation 
		JOINT Spine
		{
			OFFSET 15.7357 0.0 0.0
			CHANNELS 6 Xposition Yposition Zposition Zrotation Xrotation Yrotation 
			JOINT Chest
			{
				OFFSET 8.98455 -0.406207 0.0
				CHANNELS 6 Xposition Yposition Zposition Zrotation Xrotation Yrotation 
				JOINT Neck
				{
					OFFSET 16.3773 0.0 0.0
					CHANNELS 6 Xposition Yposition Zposition Zrotation Xrotation Yrotation 
					JOINT Head
					{
						OFFSET 6.45672 0.0 0.0
						CHANNELS 6 Xposition Yposition Zposition Zrotation Xrotation Yrotation 
						End Site
						{
							OFFSET 0.0 0.0 0.0
						}
					}
				}
				JOINT Shoulder_L
				{
					OFFSET 12.9942 -0.242716 4.98039
					CHANNELS 6 Xposition Yposition Zposition Zrotation Xrotation Yrotation 
					JOINT UpperArm_L
					{
						OFFSET 5.34809 0.0 0.0
						CHANNELS 6 Xposition Yposition Zposition Zrotation Xrotation Yrotation 
						JOINT LowerArm_L
						{
							OFFSET 24.3286 1.87007e-05 0.0
							CHANNELS 6 Xposition Yposition Zposition Zrotation Xrotation Yrotation 
							JOINT Hand_L
							{
								OFFSET 22.2916 0.0 0.0
								CHANNELS 6 Xposition Yposition Zposition Zrotation Xrotation Yrotation 
								End Site
								{
									OFFSET 0.0 0.0 0.0
								}
							}
						}
					}
				}
				JOINT Shoulder_R
				{
					OFFSET 12.9945 -0.242716 -4.98039
					CHANNELS 6 Xposition Yposition Zposition Zrotation Xrotation Yrotation 
					JOINT UpperArm_R
					{
						OFFSET -5.34813 0.0 0.0
						CHANNELS 6 Xposition Yposition Zposition Zrotation Xrotation Yrotation 
						JOINT LowerArm_R
						{
							OFFSET -24.3289 0.000322201 0.0
							CHANNELS 6 Xposition Yposition Zposition Zrotation Xrotation Yrotation 
							JOINT Hand_R
							{
								OFFSET -22.2915 -0.000108084 0.0
								CHANNELS 6 Xposition Yposition Zposition Zrotation Xrotation Yrotation 
								End Site
								{
									OFFSET 0.0 0.0 0.0
								}
							}
						}
					}
				}
			}
		}
		JOINT UpperLeg_L
		{
			OFFSET -2.19248 -6.46944 0.0
			CHANNELS 6 Xposition Yposition Zposition Zrotation Xrotation Yrotation 
			JOINT LowerLeg_L
			{
				OFFSET 39.0811 0.0 -1.23785e-05
				CHANNELS 6 Xposition Yposition Zposition Zrotation Xrotation Yrotation 
				JOINT Foot_L
				{
					OFFSET 40.9854 0.0 -1.26872e-05
					CHANNELS 6 Xposition Yposition Zposition Zrotation Xrotation Yrotation 
					JOINT Toes_L
					{
						OFFSET 11.7543 0.0 0.0
						CHANNELS 6 Xposition Yposition Zposition Zrotation Xrotation Yrotation 
						End Site
						{
							OFFSET 0.0 0.0 0.0
						}
					}
				}
			}
		}
		JOINT UpperLeg_R
		{
			OFFSET -2.19251 6.46944 0.0
			CHANNELS 6 Xposition Yposition Zposition Zrotation Xrotation Yrotation 
			JOINT LowerLeg_R
			{
				OFFSET -39.0811 -0.00228153 -0.0401928
				CHANNELS 6 Xposition Yposition Zposition Zrotation Xrotation Yrotation 
				JOINT Foot_R
				{
					OFFSET -40.9854 0.0 0.0
					CHANNELS 6 Xposition Yposition Zposition Zrotation Xrotation Yrotation 
					JOINT Toes_R
					{
						OFFSET -11.7543 0.0 0.0
						CHANNELS 6 Xposition Yposition Zposition Zrotation Xrotation Yrotation 
						End Site
						{
							OFFSET 0.0 0.0 0.0
						}
					}
				}
			}
		}
	}
}
MOTION
Frames:	7
Frame Time:	0.0333333
0.000000 0.000000 0.000000 0.000000 0.000000 -0.000000 -1.993160 92.940900 -1.275740 89.289800 -1.351090 2.377060 15.735700 0.000005 -0.000001 90.522100 86.576100 -90.022600 8.984550 -0.406207 -0.000000 -0.918421 0.024536 0.998870 16.377300 -0.000001 -0.000001 4.227420 -2.156310 0.796703 6.456720 -0.000001 -0.000000 8.205550 -2.003560 -3.732130 12.994200 -0.242716 4.980390 -88.844500 -3.600030 -72.191400 5.348090 -0.000007 -0.000001 -79.232300 -34.948900 -75.039500 24.328600 0.000019 0.000005 11.492900 -2.153480 -100.473000 22.291600 -0.000001 0.000005 18.266700 5.562110 -9.291730 12.994500 -0.242716 -4.980390 87.689100 7.436000 -72.681700 -5.348130 -0.000001 -0.000004 -63.795100 40.876600 -11.360700 -24.328900 0.000322 -0.000009 3.215610 8.861960 -20.042400 -22.291500 -0.000108 -0.000004 6.995770 5.360740 -1.702180 -2.192480 -6.469440 -0.000000 -176.171000 -7.190510 -1.934670 39.081100 -0.000007 -0.000012 -0.060228 0.199478 16.800400 40.985400 -0.000006 -0.000013 -0.916307 4.827280 -62.615400 11.754300 -0.000000 0.000003 -0.000001 -0.000012 -16.578000 -2.192510 6.469440 -0.000001 -179.898000 10.666300 179.491000 -39.081100 -0.002282 -0.040193 -0.048883 0.193006 15.137700 -40.985400 0.000008 0.000006 2.252040 6.968260 -62.767300 -11.754300 -0.000006 -0.000006 -0.005936 -0.070254 -19.432300
0.000000 0.000000 0.000000 0.000000 0.000000 -0.000000 -1.983480 92.944300 -1.279070 89.273200 -1.427210 2.393390 15.735700 0.000005 -0.000001 90.614100 86.553200 -90.113600 8.984550 -0.406207 -0.000000 -0.872752 0.036156 1.000710 16.377300 -0.000001 -0.000001 4.031530 -2.157680 0.852222 6.456720 -0.000001 -0.000000 8.115990 -1.977350 -3.739250 12.994200 -0.242716 4.980390 -88.910000 -3.386160 -72.144400 5.348090 -0.000007 -0.000001 -76.666700 -34.612700 -71.161400 24.328600 0.000019 0.000005 9.169790 -2.003290 -102.222000 22.291600 -0.000001 0.000005 18.424300 5.560060 -9.190180 12.994500 -0.242716 -4.980390 87.656900 7.531560 -72.663100 -5.348130 -0.000001 -0.000004 -63.613500 40.851100 -11.550900 -24.328900 0.000322 -0.000009 3.251980 8.919530 -20.131900 -22.291500 -0.000108 -0.000004 7.019010 5.361610 -1.728620 -2.192480 -6.469440 -0.000000 -176.160000 -7.235940 -1.898720 39.081100 -0.000007 -0.000012 -0.060114 0.199315 16.783400 40.985400 -0.000006 -0.000013 -0.910952 4.806280 -62.614600 11.754300 -0.000000 0.000003 -0.000002 -0.000023 -16.578400 -2.192510 6.469440 -0.000001 -179.893000 10.562300 179.535000 -39.081100 -0.002282 -0.040193 -0.048380 0.191870 15.083300 -40.985400 0.000008 0.000006 2.237040 6.980640 -62.737400 -11.754300 -0.000006 -0.000006 -0.006087 -0.071623 -19.488100
0.000000 0.000000 0.000000 0.000000 0.000000 -0.000000 -1.959930 92.950400 -1.274560 89.268300 -1.505730 2.326110 15.735700 0.000005 -0.000001 90.783600 86.550800 -90.271400 8.984550 -0.406207 -0.000000 -0.868406 0.055734 1.024310 16.377300 -0.000001 -0.000001 3.790740 -2.199380 0.978464 6.456720 -0.000001 -0.000000 8.008160 -1.953590 -3.928460 12.994200 -0.242716 4.980390 -89.042300 -2.981560 -72.183900 5.348090 -0.000007 -0.000001 -72.759100 -33.812100 -65.428800 24.328600 0.000019 0.000005 7.131420 -1.853740 -104.500000 22.291600 -0.000001 0.000005 17.836000 5.560480 -9.210690 12.994500 -0.242716 -4.980390 87.633600 7.579950 -72.605100 -5.348130 -0.000001 -0.000004 -63.538800 40.701500 -11.721900 -24.328900 0.000322 -0.000009 3.281340 9.015960 -20.101200 -22.291500 -0.000108 -0.000004 7.003860 5.362530 -1.756960 -2.192480 -6.469440 -0.000000 -176.180000 -7.229880 -1.923520 39.081100 -0.000007 -0.000012 -0.059222 0.197067 16.726300 40.985400 -0.000006 -0.000013 -0.904745 4.765360 -62.600500 11.754300 -0.000000 0.000003 -0.000001 -0.000018 -16.578200 -2.192510 6.469440 -0.000001 -179.893000 10.531800 179.487000 -39.081100 -0.002282 -0.040193 -0.048667 0.193698 15.026600 -40.985400 0.000008 0.000006 2.222340 7.022180 -62.698600 -11.754300 -0.000006 -0.000006 -0.006072 -0.071489 -19.482600
0.000000 0.000000 0.000000 0.000000 0.000000 -0.000000 -1.915270 92.951900 -1.261870 89.269300 -1.560720 2.334230 15.735700 0.000005 -0.000001 91.137600 86.534700 -90.607400 8.984550 -0.406207 -0.000000 -0.837061 0.097770 1.060670 16.377300 -0.000001 -0.000001 3.537390 -2.267060 1.148160 6.456720 -0.000001 -0.000000 7.925670 -1.936330 -4.247410 12.994200 -0.242716 4.980390 -89.259400 -2.330330 -72.364700 5.348090 -0.000007 -0.000001 -67.420500 -31.951700 -58.035400 24.328600 0.000019 0.000005 5.459740 -1.658220 -106.848000 22.291600 -0.000001 0.000005 17.052500 5.563580 -9.364280 12.994500 -0.242716 -4.980390 87.590100 7.674950 -72.508900 -5.348130 -0.000001 -0.000004 -63.512600 40.499900 -11.701000 -24.328900 0.000322 -0.000009 3.286750 9.013740 -20.136200 -22.291500 -0.000108 -0.000004 7.107600 5.360970 -1.709340 -2.192480 -6.469440 -0.000000 -176.214000 -7.273670 -1.892740 39.081100 -0.000007 -0.000012 -0.059136 0.196905 16.716300 40.985400 -0.000006 -0.000013 -0.880673 4.700690 -62.612900 11.754300 -0.000000 0.000003 -0.000002 -0.000032 -16.578800 -2.192510 6.469440 -0.000001 -179.912000 10.420000 179.514000 -39.081100 -0.002282 -0.040193 -0.047533 0.189754 15.005300 -40.985400 0.000008 0.000006 2.187480 6.965620 -62.690000 -11.754300 -0.000006 -0.000006 -0.005866 -0.069612 -19.406100
0.000000 0.000000 0.000000 0.000000 0.000000 -0.000000 -1.881750 92.951300 -1.248760 89.258700 -1.616010 2.316960 15.735700 0.000005 -0.000001 90.861500 86.510800 -90.311900 8.984550 -0.406207 -0.000000 -0.788550 0.063879 1.099050 16.377300 -0.000001 -0.000001 3.249080 -2.289720 1.343830 6.456720 -0.000001 -0.000000 7.788390 -1.811090 -4.557580 12.994200 -0.242716 4.980390 -89.495300 -1.595210 -72.440100 5.348090 -0.000007 -0.000001 -61.283800 -28.340300 -49.526200 24.328600 0.000019 0.000005 4.114030 -1.391190 -108.655000 22.291600 -0.000001 0.000005 16.361100 5.571170 -9.751690 12.994500 -0.242716 -4.980390 87.539600 7.789680 -72.410200 -5.348130 -0.000001 -0.000004 -63.370500 40.534800 -11.829400 -24.328900 0.000322 -0.000009 3.244200 8.914790 -20.097300 -22.291500 -0.000108 -0.000004 7.031890 5.359820 -1.674080 -2.192480 -6.469440 -0.000000 -176.227000 -7.322170 -1.900250 39.081100 -0.000007 -0.000012 -0.058936 0.196040 16.732200 40.985400 -0.000006 -0.000013 -0.856634 4.691920 -62.638100 11.754300 -0.000000 0.000003 -0.000002 -0.000032 -16.578800 -2.192510 6.469440 -0.000001 -179.913000 10.273400 179.501000 -39.081100 -0.002282 -0.040193 -0.048294 0.192678 14.998900 -40.985400 0.000008 0.000006 2.148330 6.883480 -62.682200 -11.754300 -0.000006 -0.000006 -0.006049 -0.071281 -19.474200
0.000000 0.000000 0.000000 0.000000 0.000000 -0.000000 -1.828080 92.946300 -1.225220 89.231800 -1.736870 2.262710 15.735700 0.000005 -0.000001 90.524100 86.508800 -89.945500 8.984550 -0.406207 -0.000000 -0.783694 0.020697 1.156860 16.377300 -0.000001 -0.000001 2.942260 -2.283790 1.488670 6.456720 -0.000001 -0.000000 7.672580 -1.682910 -4.810030 12.994200 -0.242716 4.980390 -89.821300 -0.561123 -72.336300 5.348090 -0.000007 -0.000001 -55.983700 -23.211000 -41.777500 24.328600 0.000019 0.000005 4.470760 -1.541470 -108.987000 22.291600 -0.000001 0.000005 13.895500 5.572960 -9.831800 12.994500 -0.242716 -4.980390 87.502800 7.843320 -72.276800 -5.348130 -0.000001 -0.000004 -63.391800 40.477800 -11.855000 -24.328900 0.000322 -0.000009 3.297450 9.083370 -20.055400 -22.291500 -0.000108 -0.000004 7.129720 5.359080 -1.652020 -2.192480 -6.469440 -0.000000 -176.241000 -7.444670 -1.966760 39.081100 -0.000007 -0.000012 -0.058956 0.195113 16.812700 40.985400 -0.000006 -0.000013 -0.813847 4.681890 -62.703100 11.754300 -0.000000 0.000003 -0.000002 -0.000031 -16.578700 -2.192510 6.469440 -0.000001 -179.916000 10.162200 179.434000 -39.081100 -0.002282 -0.040193 -0.048868 0.194449 15.026500 -40.985400 0.000008 0.000006 2.112710 6.914390 -62.690700 -11.754300 -0.000006 -0.000006 -0.006158 -0.072268 -19.514400
0.000000 0.000000 0.000000 0.000000 0.000000 -0.000000 -1.782470 92.948700 -1.199070 89.201800 -1.871720 2.206400 15.735700 0.000005 -0.000001 90.381700 86.520900 -89.789300 8.984550 -0.406207 -0.000000 -0.807798 0.002034 1.184190 16.377300 -0.000001 -0.000001 2.721100 -2.244480 1.709280 6.456720 -0.000001 -0.000000 7.565530 -1.578630 -5.073660 12.994200 -0.242716 4.980390 -90.073100 0.225996 -72.076300 5.348090 -0.000007 -0.000001 -52.602700 -16.663600 -35.178100 24.328600 0.000019 0.000005 4.701440 -1.454990 -107.154000 22.291600 -0.000001 0.000005 11.005600 5.570970 -9.737180 12.994500 -0.242716 -4.980390 87.484300 7.853220 -72.174800 -5.348130 -0.000001 -0.000004 -63.665900 40.241800 -11.611800 -24.328900 0.000322 -0.000009 3.283690 9.018500 -20.109300 -22.291500 -0.000108 -0.000004 7.160900 5.358160 -1.623530 -2.192480 -6.469440 -0.000000 -176.251000 -7.472050 -1.987090 39.081100 -0.000007 -0.000012 -0.058708 0.194317 16.810700 40.985400 -0.000006 -0.000013 -0.801761 4.565850 -62.734500 11.754300 -0.000000 0.000003 -0.000002 -0.000032 -16.578700 -2.192510 6.469440 -0.000001 -179.910000 10.118600 179.424000 -39.081100 -0.002282 -0.040193 -0.048142 0.192668 14.957500 -40.985400 0.000008 0.000006 2.087530 6.983440 -62.663100 -11.754300 -0.000006 -0.000006 -0.006059 -0.071370 -19.477800
